<svg width="34" height="34" viewBox="0 0 34 34" fill="none" xmlns="http://www.w3.org/2000/svg">
<g clip-path="url(#clip0_903_3934)">
<path d="M24.7779 24.7782C26.3163 23.2398 27.3639 21.2798 27.7884 19.146C28.2128 17.0122 27.995 14.8005 27.1624 12.7905C26.3298 10.7805 24.9199 9.06253 23.111 7.85384C21.302 6.64514 19.1753 6 16.9997 6C14.8241 6 12.6974 6.64514 10.8884 7.85384C9.0795 9.06253 7.6696 10.7805 6.83704 12.7905C6.00447 14.8005 5.78664 17.0122 6.21107 19.146C6.63551 21.2798 7.68316 23.2398 9.22154 24.7782C11.2861 26.8379 14.0834 27.9946 16.9997 27.9946C19.916 27.9946 22.7133 26.8379 24.7779 24.7782ZM10.6358 10.636C11.8944 9.37737 13.4981 8.5202 15.2439 8.17294C16.9897 7.82567 18.7993 8.0039 20.4439 8.68509C22.0884 9.36628 23.494 10.5198 24.4829 11.9999C25.4719 13.4799 25.9997 15.22 25.9997 17C25.9997 18.78 25.4719 20.5201 24.4829 22.0001C23.494 23.4802 22.0884 24.6337 20.4439 25.3149C18.7993 25.9961 16.9897 26.1743 15.2439 25.8271C13.4981 25.4798 11.8944 24.6226 10.6358 23.364C8.95037 21.6748 8.00385 19.3861 8.00385 17C8.00385 14.6139 8.95037 12.3252 10.6358 10.636ZM15.9999 21.2426V17.9999H12.7571C12.4949 17.9953 12.245 17.888 12.0612 17.7009C11.8774 17.5139 11.7744 17.2622 11.7744 17C11.7744 16.7378 11.8774 16.4861 12.0612 16.2991C12.245 16.1121 12.4949 16.0047 12.7571 16.0002H15.9999V12.7574C16.0044 12.4952 16.1118 12.2453 16.2988 12.0615C16.4858 11.8777 16.7375 11.7747 16.9997 11.7747C17.2619 11.7747 17.5136 11.8777 17.7006 12.0615C17.8877 12.2453 17.995 12.4952 17.9996 12.7574V16.0002H21.2424C21.3751 15.9978 21.507 16.022 21.6303 16.0712C21.7537 16.1204 21.866 16.1937 21.9607 16.2868C22.0554 16.3799 22.1306 16.4909 22.1819 16.6133C22.2333 16.7358 22.2597 16.8672 22.2597 17C22.2597 17.1328 22.2333 17.2642 22.1819 17.3867C22.1306 17.5092 22.0554 17.6202 21.9607 17.7132C21.866 17.8063 21.7537 17.8796 21.6303 17.9288C21.507 17.978 21.3751 18.0022 21.2424 17.9999H17.9996V21.2426C17.995 21.5048 17.8877 21.7547 17.7006 21.9385C17.5136 22.1223 17.2619 22.2253 16.9997 22.2253C16.7375 22.2253 16.4858 22.1223 16.2988 21.9385C16.1118 21.7547 16.0044 21.5048 15.9999 21.2426Z" fill="#F7FAFC"/>
</g>
<defs>
<clipPath id="clip0_903_3934">
<rect width="24" height="24" fill="white" transform="translate(0.0292969 17) rotate(-45)"/>
</clipPath>
</defs>
</svg>
