<svg width="16" height="17" viewBox="0 0 16 17" fill="none" xmlns="http://www.w3.org/2000/svg">
<g opacity="0.5">
<path d="M2.86195 12.6953L7.05728 8.49997L2.86195 4.30464C2.74051 4.1789 2.67331 4.0105 2.67483 3.83571C2.67635 3.66091 2.74646 3.4937 2.87007 3.37009C2.99367 3.24649 3.16088 3.17638 3.33568 3.17486C3.51048 3.17334 3.67888 3.24053 3.80461 3.36197L7.99995 7.55731L12.1953 3.36197C12.2568 3.2983 12.3303 3.24751 12.4117 3.21257C12.493 3.17763 12.5805 3.15924 12.669 3.15847C12.7575 3.1577 12.8453 3.17457 12.9272 3.20809C13.0092 3.24161 13.0836 3.29111 13.1462 3.35371C13.2088 3.4163 13.2583 3.49074 13.2918 3.57267C13.3253 3.6546 13.3422 3.74239 13.3414 3.83091C13.3407 3.91943 13.3223 4.00691 13.2873 4.08824C13.2524 4.16958 13.2016 4.24314 13.1379 4.30464L8.94261 8.49997L13.1379 12.6953C13.2016 12.7568 13.2524 12.8304 13.2873 12.9117C13.3223 12.993 13.3407 13.0805 13.3414 13.169C13.3422 13.2576 13.3253 13.3453 13.2918 13.4273C13.2583 13.5092 13.2088 13.5836 13.1462 13.6462C13.0836 13.7088 13.0092 13.7583 12.9272 13.7919C12.8453 13.8254 12.7575 13.8422 12.669 13.8415C12.5805 13.8407 12.493 13.8223 12.4117 13.7874C12.3303 13.7524 12.2568 13.7016 12.1953 13.638L7.99995 9.44264L3.80461 13.638C3.67888 13.7594 3.51048 13.8266 3.33568 13.8251C3.16088 13.8236 2.99367 13.7535 2.87007 13.6299C2.74646 13.5062 2.67635 13.339 2.67483 13.1642C2.67331 12.9894 2.74051 12.821 2.86195 12.6953Z" fill="#F7FAFC"/>
</g>
</svg>
