<svg width="24" height="23" viewBox="0 0 24 23" fill="none" xmlns="http://www.w3.org/2000/svg">
<path d="M12.4403 18.2866L17.4934 21.4949C18.1451 21.906 18.9472 21.2944 18.7567 20.5425L17.2929 14.7875C17.2533 14.628 17.2596 14.4605 17.3111 14.3044C17.3625 14.1483 17.457 14.01 17.5837 13.9052L22.1154 10.1254C22.707 9.63412 22.4062 8.64155 21.6342 8.59142L15.7188 8.21043C15.5574 8.20103 15.4022 8.14483 15.2723 8.04868C15.1423 7.95254 15.0431 7.82061 14.9869 7.66902L12.7812 2.11459C12.7228 1.95408 12.6164 1.81542 12.4765 1.71744C12.3366 1.61945 12.17 1.56689 11.9992 1.56689C11.8283 1.56689 11.6617 1.61945 11.5218 1.71744C11.3819 1.81542 11.2755 1.95408 11.2171 2.11459L9.01139 7.66902C8.95518 7.82061 8.85602 7.95254 8.72604 8.04868C8.59606 8.14483 8.44089 8.20103 8.27949 8.21043L2.36413 8.59142C1.59212 8.64155 1.29134 9.63412 1.88288 10.1254L6.41465 13.9052C6.54131 14.01 6.63581 14.1483 6.68725 14.3044C6.73869 14.4605 6.74498 14.628 6.7054 14.7875L5.35189 20.1214C5.12129 21.0237 6.08379 21.7556 6.85579 21.2643L11.558 18.2866C11.6899 18.2028 11.8429 18.1582 11.9992 18.1582C12.1554 18.1582 12.3084 18.2028 12.4403 18.2866V18.2866Z" stroke="#F7FAFC" stroke-width="1.60417" stroke-linecap="round" stroke-linejoin="round"/>
</svg>
