<svg width="200" height="64" viewBox="0 0 200 64" fill="none" xmlns="http://www.w3.org/2000/svg">
<g opacity="0.6">
<path d="M68.1994 27.4227C68.1994 24.2449 65.1093 20.87 59.762 20.87C53.7571 20.87 47.1605 25.275 46.1524 34.0631C45.1224 42.9389 50.6451 46.8836 56.2116 46.8836C61.7782 46.8836 64.6929 44.714 67.6734 41.8212C65.1093 38.5996 61.8001 40.0898 61.1645 40.4186C60.1137 41.0014 58.9248 41.2891 57.7238 41.2514C55.5761 41.2514 53.3845 40.2871 53.3845 36.2765C67.1475 34.9178 68.1994 30.6004 68.1994 27.4227ZM61.3837 27.9487C61.296 28.9349 60.9016 30.6223 53.9324 31.5647C55.4008 26.3488 58.206 25.9544 59.499 25.9544C59.7587 25.9441 60.0176 25.9895 60.2583 26.0877C60.4991 26.1858 60.716 26.3343 60.8945 26.5232C61.0731 26.7121 61.2091 26.9371 61.2935 27.183C61.3778 27.4288 61.4086 27.6899 61.3837 27.9487ZM38.0656 28.8034C38.0656 28.8034 35.107 38.0955 34.866 38.8626C34.7783 38.0736 32.6087 21.3959 32.6087 21.3959C27.5681 21.3959 24.8725 24.9901 23.448 28.7814C23.448 28.7814 19.8539 38.0955 19.547 38.8845C19.5251 38.1613 18.9992 28.891 18.9992 28.891C18.6923 24.2449 14.4407 21.4178 11 21.4178L15.1639 46.6864C20.4456 46.6645 23.2946 43.0923 24.7848 39.3009C24.7848 39.3009 27.9626 31.0826 28.0941 30.71C28.116 31.0607 30.3733 46.6864 30.3733 46.6864C35.6768 46.6864 38.5258 43.3333 40.0599 39.6734L47.4893 21.4178C42.2515 21.4178 39.4901 24.9901 38.0656 28.8034ZM87.6604 20.8261C84.395 20.8261 81.8966 22.6013 79.7927 25.2092V25.1873L81.6774 9.99988C77.3382 9.99988 73.8098 13.7693 73.1304 19.3797L69.8431 46.4892C72.3414 46.4892 74.9932 45.7659 76.4177 43.925C77.1089 44.8626 78.015 45.6206 79.0599 46.1354C80.1048 46.6502 81.258 46.9068 82.4226 46.8836C89.7423 46.8836 94.761 38.3804 94.761 30.4032C94.7171 23.1273 91.1888 20.8261 87.6604 20.8261ZM86.981 33.8658C86.2139 38.3147 83.7375 41.339 81.3487 41.339C78.9599 41.339 77.908 40.2652 77.908 40.2652C78.3682 36.3642 78.6531 33.9754 79.5297 31.9154C80.4063 29.8553 82.4883 26.568 84.6579 26.568C86.7837 26.568 87.748 29.3951 86.981 33.8658ZM113.038 21.4178H107.932L107.954 21.1549C108.305 17.8237 109.094 16.0705 111.702 15.7856C113.477 15.6102 114.266 14.6898 114.463 13.6817C114.616 12.8927 115.099 10.1533 115.099 10.1533C104.842 10.0875 101.621 14.5145 100.788 21.2644L100.766 21.4178H100.656C98.9907 21.4178 97.1498 23.3026 96.843 25.6914L96.7334 26.568H100.152L97.2813 50.2805L96.4046 54.5321C96.5142 54.5321 96.6457 54.5541 96.7553 54.5541C101.555 54.3787 104.623 50.5874 105.302 45.0866L107.538 26.568H109.138C110.715 26.568 112.556 24.9901 112.885 22.3602L113.038 21.4178ZM139.6 20.9795C133.705 20.9795 128.138 25.3188 126.429 32.1345C124.719 38.9502 127.305 47.0151 135.984 47.0151C144.663 47.0151 149.637 38.6215 149.637 31.6305C149.637 24.6833 144.926 20.9795 139.6 20.9795V20.9795ZM141.989 33.6467C141.682 36.7368 140.323 41.4267 136.598 41.4267C132.872 41.4267 133.376 35.9478 133.749 33.3399C134.143 30.5566 135.699 26.5899 139.052 26.5899C142.055 26.5899 142.339 30.1621 141.989 33.6467ZM178.763 28.8034C178.763 28.8034 175.804 38.0955 175.563 38.8626C175.476 38.0736 173.306 21.3959 173.306 21.3959C168.266 21.3959 165.57 24.9901 164.145 28.7814C164.145 28.7814 160.551 38.0955 160.244 38.8845C160.223 38.1613 159.697 28.891 159.697 28.891C159.39 24.2449 155.138 21.4178 151.697 21.4178L155.839 46.6864C161.121 46.6645 163.97 43.0923 165.46 39.3009C165.46 39.3009 168.638 31.0826 168.748 30.71C168.791 31.0607 171.027 46.6864 171.027 46.6864C176.33 46.6864 179.179 43.3333 180.714 39.6734L188.143 21.4178C182.927 21.4178 180.166 24.9901 178.763 28.8034ZM117.86 10.1533L113.564 44.8017L112.688 49.0752C112.797 49.0752 112.929 49.0971 113.038 49.0971C117.663 49.0314 120.95 44.977 121.564 39.8707L124.04 19.9933C124.785 13.9227 121.169 10.1533 117.86 10.1533Z" fill="#F7FAFC"/>
</g>
</svg>
